<svg id="visual" viewBox="0 0 900 600" width="900" height="600" xmlns="http://www.w3.org/2000/svg" xmlns:xlink="http://www.w3.org/1999/xlink" version="1.1"><rect x="0" y="0" width="900" height="600" fill="#ffffff"></rect><defs><linearGradient id="grad1_0" x1="33.3%" y1="0%" x2="100%" y2="100%"><stop offset="20%" stop-color="#bd7dc2" stop-opacity="1"></stop><stop offset="80%" stop-color="#bd7dc2" stop-opacity="1"></stop></linearGradient></defs><defs><linearGradient id="grad1_1" x1="33.3%" y1="0%" x2="100%" y2="100%"><stop offset="20%" stop-color="#bd7dc2" stop-opacity="1"></stop><stop offset="80%" stop-color="#ffffff" stop-opacity="1"></stop></linearGradient></defs><defs><linearGradient id="grad2_0" x1="0%" y1="0%" x2="66.7%" y2="100%"><stop offset="20%" stop-color="#bd7dc2" stop-opacity="1"></stop><stop offset="80%" stop-color="#bd7dc2" stop-opacity="1"></stop></linearGradient></defs><defs><linearGradient id="grad2_1" x1="0%" y1="0%" x2="66.7%" y2="100%"><stop offset="20%" stop-color="#ffffff" stop-opacity="1"></stop><stop offset="80%" stop-color="#bd7dc2" stop-opacity="1"></stop></linearGradient></defs><g transform="translate(900, 0)"><path d="M0 378.6C-74.5 373.5 -149 368.3 -189.3 327.9C-229.6 287.4 -235.7 211.5 -261.5 151C-287.4 90.5 -333 45.2 -378.6 0L0 0Z" fill="#dfbde0"></path><path d="M0 189.3C-37.2 186.7 -74.5 184.2 -94.6 163.9C-114.8 143.7 -117.8 105.8 -130.8 75.5C-143.7 45.2 -166.5 22.6 -189.3 0L0 0Z" fill="#bd7dc2"></path></g><g transform="translate(0, 600)"><path d="M0 -378.6C73 -372.6 146 -366.6 189.3 -327.9C232.6 -289.1 246.2 -217.6 272.8 -157.5C299.4 -97.4 339 -48.7 378.6 0L0 0Z" fill="#dfbde0"></path><path d="M0 -189.3C36.5 -186.3 73 -183.3 94.6 -163.9C116.3 -144.6 123.1 -108.8 136.4 -78.8C149.7 -48.7 169.5 -24.3 189.3 0L0 0Z" fill="#bd7dc2"></path></g></svg>